<svg xmlns="http://www.w3.org/2000/svg" xmlns:xlink="http://www.w3.org/1999/xlink" version="1.1" x="0px" y="0px" viewBox="0 0 512 640" enable-background="new 0 0 512 512" xml:space="preserve"><path fill-rule="evenodd" clip-rule="evenodd" d="M240,320c8.836,0,16,7.164,16,16s-7.164,16-16,16s-16-7.164-16-16  S231.164,320,240,320z M240,128c-26.508,0-48,21.492-48,48c0,8.836-7.164,16-16,16s-16-7.164-16-16c0-44.18,35.82-80,80-80  s80,35.82,80,80c0,33.156-20.203,61.547-48.938,73.672c-0.031,0.016-0.031,0.062-0.062,0.07c-8.797,3.562-15,12.188-15,22.258  c0,1.211-0.117,2.156-0.297,2.961C254.312,282.383,247.82,288,240,288c-8.836,0-16-7.164-16-16  c0-23.234,14.148-43.156,34.297-51.641c0.016-0.008,0.031-0.016,0.055-0.031C275.75,213.125,288,196.008,288,176  C288,149.492,266.508,128,240,128z M416,416H304c-10.781,0-20.727,3.555-28.734,9.555l-101.109,75.828  c-0.18,0.133-0.273,0.18-0.477,0.344C165.516,508.164,155.203,512,144,512c-26.508,0-48-21.492-48-48v-32c0-8.836-7.164-16-16-16H64  c-35.344,0-64-28.656-64-64V64C0,28.656,28.656,0,64,0h272c8.836,0,16,7.164,16,16s-7.164,16-16,16H72c-22.094,0-40,17.906-40,40  v272c0,22.094,17.906,40,40,40h16c22.094,0,40,17.906,40,40v40c0,8.836,7.164,16,16,16c3.383,0,6.523-1.047,9.109-2.844  c0.016-0.008,0.023,0,0.031-0.016l101.836-76.375c0.023-0.016,0.039-0.023,0.062-0.039C268.57,390.242,285.555,384,304,384h104  c22.094,0,40-17.906,40-40V80c0-8.836,7.164-16,16-16s16,7.164,16,16v272C480,387.344,451.344,416,416,416z M400,32  c-8.836,0-16-7.164-16-16s7.164-16,16-16s16,7.164,16,16S408.836,32,400,32z"/><text x="0" y="527" fill="#000000" font-size="5px" font-weight="bold" font-family="'Helvetica Neue', Helvetica, Arial-Unicode, Arial, Sans-serif">Created by Muhamad Ulum</text><text x="0" y="532" fill="#000000" font-size="5px" font-weight="bold" font-family="'Helvetica Neue', Helvetica, Arial-Unicode, Arial, Sans-serif">from the Noun Project</text></svg>