<?xml version="1.0" encoding="utf-8"?>
<!-- Generator: Adobe Illustrator 20.1.0, SVG Export Plug-In . SVG Version: 6.00 Build 0)  -->
<svg version="1.1" baseProfile="tiny" xmlns="http://www.w3.org/2000/svg" xmlns:xlink="http://www.w3.org/1999/xlink" x="0px"
	 y="0px" viewBox="0 0 50 50" overflow="scroll" xml:space="preserve">
<g id="Layer_3">
</g>
<g id="Layer_1" display="none">
	<g>
		
			<rect x="5.5" y="38" transform="matrix(0.7071 -0.7071 0.7071 0.7071 -27.0235 18.0958)" display="inline" fill="none" stroke="#000000" stroke-width="2" stroke-miterlimit="10" width="5.6" height="7.3"/>
		
			<rect x="9.5" y="26.7" transform="matrix(0.7071 -0.7071 0.7071 0.7071 -23.04 19.7458)" display="inline" fill="none" stroke="#000000" stroke-width="2" stroke-miterlimit="10" width="5.6" height="22"/>
		
			<rect x="13.5" y="19.4" transform="matrix(0.7071 -0.7071 0.7071 0.7071 -19.0069 21.4164)" display="inline" fill="none" stroke="#000000" stroke-width="2" stroke-miterlimit="10" width="5.6" height="28.5"/>
		
			<rect x="39.4" y="4.1" transform="matrix(-0.7071 0.7071 -0.7071 -0.7071 77.6186 -16.6771)" display="inline" fill="none" stroke="#000000" stroke-width="2" stroke-miterlimit="10" width="5.6" height="7.3"/>
		
			<rect x="35.4" y="0.8" transform="matrix(-0.7071 0.7071 -0.7071 -0.7071 73.5854 -6.9403)" display="inline" fill="none" stroke="#000000" stroke-width="2" stroke-miterlimit="10" width="5.6" height="22"/>
		
			<rect x="30.9" y="1.2" transform="matrix(-0.7071 0.7071 -0.7071 -0.7071 68.3915 2.5231)" display="inline" fill="none" stroke="#000000" stroke-width="2" stroke-miterlimit="10" width="5.6" height="28.5"/>
		
			<rect x="22.5" y="14.8" transform="matrix(0.7071 0.7071 -0.7071 0.7071 24.8623 -10.6878)" display="inline" fill="none" stroke="#000000" stroke-width="2" stroke-miterlimit="10" width="5.6" height="19.6"/>
	</g>
	<g>
		<g display="inline">
			<path d="M8.9,47.7l-6.6-6.6l5.4-5.4l6.6,6.6L8.9,47.7z M5.2,41.1l3.8,3.8l2.6-2.6l-3.8-3.8L5.2,41.1z"/>
		</g>
		<g display="inline">
			<path d="M18.1,48.9l-17-17l5.4-5.4l17,17L18.1,48.9z M4,31.9L18.1,46l2.6-2.6L6.5,29.3L4,31.9z"/>
		</g>
		<g display="inline">
			<path d="M24.4,47.1L2.9,25.6l5.4-5.4l21.6,21.6L24.4,47.1z M5.7,25.6l18.8,18.8l2.6-2.6L8.3,23L5.7,25.6z"/>
		</g>
		<g display="inline">
			<path d="M42.9,13.7l-6.6-6.6l5.4-5.4l6.6,6.6L42.9,13.7z M39.1,7.1l3.8,3.8l2.6-2.6l-3.8-3.8L39.1,7.1z"/>
		</g>
		<g display="inline">
			<path d="M44,23L27,6l5.4-5.4l17,17L44,23z M29.9,6L44,20.1l2.6-2.6L32.4,3.4L29.9,6z"/>
		</g>
		<g display="inline">
			<path d="M41.8,28.9L20.2,7.3l5.4-5.4l21.6,21.6L41.8,28.9z M23,7.3l18.8,18.8l2.6-2.6L25.6,4.8L23,7.3z"/>
		</g>
		<g display="inline">
			<polygon points="22.9,29.7 20.4,32.2 17.8,29.6 25.2,22.2 23.8,20.8 15,29.6 20.4,35 24.3,31.1 			"/>
			<polygon points="30.3,17.1 32.9,19.7 25.3,27.3 26.7,28.7 35.7,19.7 30.3,14.3 26.2,18.4 27.6,19.8 			"/>
		</g>
	</g>
	<g display="inline">
		<path fill="#FFFFFF" d="M49.4,17.6l-5.2-5.2l4-4l-6.6-6.6l-4,4l-5.2-5.2l-4.1,4.1l-2.8-2.8l-5.4,5.4l8.5,8.5l-2.5,2.5l1.4,1.4
			l2.5-2.5l2.6,2.6l-7.4,7.4l1.4,1.4l7.4-7.4l7.6,7.6l5.4-5.4l-1.9-1.9L49.4,17.6z M41.7,4.6l3.8,3.8l-2.6,2.6l-3.8-3.8L41.7,4.6z
			 M32.4,3.4l14.1,14.1L44,20.1L29.9,6L32.4,3.4z M41.8,26.1l-6.2-6.2l0.1-0.1l-5.4-5.4l-0.1,0.1L23,7.3l2.6-2.6l18.8,18.8
			L41.8,26.1z"/>
		<path fill="#FFFFFF" d="M21.7,33.7l2.5-2.5l-1.4-1.4l-2.5,2.5l-2.6-2.6l7.4-7.4l-1.4-1.4l-7.5,7.5l-8.1-8.1l-5.4,5.4l2.3,2.3l-4,4
			l5.2,5.2l-4,4l6.6,6.6l4-4l5.2,5.2l4-4l2.3,2.3l5.4-5.4L21.7,33.7z M8.9,44.8l-3.8-3.8l2.6-2.6l3.8,3.8L8.9,44.8z M18.1,46
			l-3.8-3.8l0,0l-6.6-6.6l0,0L4,31.9l2.6-2.6l14.1,14.1L18.1,46z M5.7,25.6L8.3,23L27,41.7l-2.6,2.6L5.7,25.6z"/>
	</g>
</g>
<g id="Layer_2">
	<g display="none">
		
			<rect x="9" y="6" display="inline" fill="none" stroke="#000000" stroke-width="2" stroke-miterlimit="10" width="33" height="41"/>
		
			<rect x="13" y="6" display="inline" fill="none" stroke="#000000" stroke-width="2" stroke-miterlimit="10" width="25" height="37"/>
		<line display="inline" fill="none" stroke="#000000" stroke-width="2" stroke-miterlimit="10" x1="17" y1="26" x2="34" y2="26"/>
		<line display="inline" fill="none" stroke="#000000" stroke-width="2" stroke-miterlimit="10" x1="17" y1="30" x2="34" y2="30"/>
		<line display="inline" fill="none" stroke="#000000" stroke-width="2" stroke-miterlimit="10" x1="17" y1="34" x2="34" y2="34"/>
		<polygon display="inline" fill="#FFFFFF" stroke="#000000" stroke-width="2" stroke-miterlimit="10" points="21,5 17,5 17,10 
			34,10 34,5 29,5 29,1 21,1 		"/>
		<rect x="24" y="4" display="inline" width="2" height="2"/>
		
			<line display="inline" fill="none" stroke="#000000" stroke-width="2" stroke-linecap="round" stroke-miterlimit="10" x1="17" y1="20" x2="19" y2="20"/>
		
			<line display="inline" fill="none" stroke="#000000" stroke-width="2" stroke-linecap="round" stroke-miterlimit="10" x1="31.9" y1="20" x2="33.9" y2="20"/>
		
			<line display="inline" fill="none" stroke="#000000" stroke-width="2" stroke-linecap="round" stroke-miterlimit="10" x1="19" y1="20" x2="20" y2="16"/>
		
			<line display="inline" fill="none" stroke="#000000" stroke-width="2" stroke-linecap="round" stroke-miterlimit="10" x1="21.9" y1="20.2" x2="20" y2="16"/>
		
			<line display="inline" fill="none" stroke="#000000" stroke-width="2" stroke-linecap="round" stroke-miterlimit="10" x1="21.9" y1="20.2" x2="23" y2="14"/>
		
			<line display="inline" fill="none" stroke="#000000" stroke-width="2" stroke-linecap="round" stroke-miterlimit="10" x1="25.2" y1="22" x2="23" y2="14"/>
		
			<line display="inline" fill="none" stroke="#000000" stroke-width="2" stroke-linecap="round" stroke-miterlimit="10" x1="25.2" y1="22" x2="27" y2="16"/>
		
			<line display="inline" fill="none" stroke="#000000" stroke-width="2" stroke-linecap="round" stroke-miterlimit="10" x1="28.8" y1="20.6" x2="27" y2="16"/>
		
			<line display="inline" fill="none" stroke="#000000" stroke-width="2" stroke-linecap="round" stroke-miterlimit="10" x1="28.8" y1="20.6" x2="30" y2="17.2"/>
		
			<line display="inline" fill="none" stroke="#000000" stroke-width="2" stroke-linecap="round" stroke-miterlimit="10" x1="32" y1="20.1" x2="30" y2="17.2"/>
	</g>
	<g>
		<path fill="#FFFFFF" d="M26,7h-2V5h2V7z"/>
		<rect x="16" y="34" fill="#FFFFFF" width="18" height="2"/>
		<path fill="#FFFFFF" d="M39.4,6H35V5h-5V1H20v4h-5v1h-4H7v43h36V6H39.4z M17,7h5V3h6v4h5v3H17V7z M13,8h2v4h20V8h2v35H13V8z
			 M41,47H9V8h2v37h28V8h2V47z"/>
		<rect x="16" y="26" fill="#FFFFFF" width="18" height="2"/>
		<rect x="16" y="30" fill="#FFFFFF" width="18" height="2"/>
		<rect x="24" y="5" fill="#FFFFFF" width="2" height="2"/>
		<path fill="#FFFFFF" d="M33.6,20c-0.3-0.3-1,0.1-1.3-0.2c-0.8-0.7-0.6-2.7-1.6-3.4c-1.4-0.9-1.9,0.3-2,1.5c-0.3-0.9-0.8-4-2.4-3.8
			c-1.5,0.2-1,4.3-1.1,5.4c0,0,0,0,0,0c-1.8-3.6-2.9-4.5-3.7-0.6c-1.2-4.1-3,0.8-3.5,1.2c-0.5,0.4-6.1,0.5-1.8,2.1
			c1.8,0.7,3.7,0,4.1-1.6c0,0,0,0,0,0c1.5,3.3,2.7,2.1,3.1-0.3c0.7,1.3,1.3,4.1,3.1,3.9c0.6-0.5,0.6-3.1,0.7-4.4
			c1,3.1,2.4,3.2,3.1,0.4c0.5,2.2,2,2,3.7,2C36,22,33.9,20.3,33.6,20z"/>
	</g>
</g>
</svg>
