<?xml version="1.0" encoding="utf-8"?>
<!-- Generator: Adobe Illustrator 20.1.0, SVG Export Plug-In . SVG Version: 6.00 Build 0)  -->
<svg version="1.1" baseProfile="tiny" xmlns="http://www.w3.org/2000/svg" xmlns:xlink="http://www.w3.org/1999/xlink" x="0px"
	 y="0px" viewBox="0 0 50 50" overflow="scroll" xml:space="preserve">
<g id="Layer_3" display="none">
</g>
<g id="Layer_1">
</g>
<g id="Layer_2">
	<image display="none" width="450" height="470" xlink:href="6AA22D6.jpg"  transform="matrix(0.1395 0 0 0.1395 -7.4468 -5.5722)">
	</image>
	<path fill="#FFFFFF" d="M40.2,16.1l0.4-1.1c0.1-0.3,0.1-0.6-0.1-0.8l-4.1-7.5c-0.2-0.4-0.6-0.6-1-0.5h0c-0.4,0.1-0.8-0.1-1-0.4
		l-2.9-4.3c-0.3-0.5-0.9-0.5-1.4-0.2L10.8,17c-0.3,0.3-0.4,0.7-0.3,1.1l2.5,6.7c0.1,0.3,0.1,0.7-0.2,1l-7.9,8.8
		c-0.3,0.4-0.3,1,0,1.3l12.9,12.6c0.4,0.4,1,0.4,1.3,0l7.7-7.9c0.2-0.2,0.6-0.3,0.9-0.3l2.8,0.7c0.3,0.1,0.7,0,0.9-0.3l13.3-13.6
		c0.3-0.3,0.4-0.7,0.2-1.1l-4.8-9.1C40.1,16.7,40.1,16.4,40.2,16.1z M42.7,26.8l-5.4,5.4c-0.4,0.4-1.2,0.3-1.5-0.2L34.7,30
		c-0.2-0.4-0.1-0.9,0.2-1.2l5.7-5.1c0.5-0.4,1.2-0.3,1.5,0.3l0.8,1.7C43.1,26,43,26.5,42.7,26.8z M40.1,21.6l-5.8,5.2
		c-0.4,0.4-1.2,0.3-1.5-0.2L31.9,25c-0.2-0.4-0.1-0.9,0.2-1.2l5.9-5.3c0.5-0.4,1.2-0.3,1.5,0.3l0.8,1.7
		C40.5,20.8,40.4,21.3,40.1,21.6z M39,15.4l-7.4,6.5c-0.4,0.4-1.1,0.3-1.4-0.2l-2-3.4c-0.2-0.4-0.2-0.9,0.2-1.2l7.1-6.3
		c0.5-0.4,1.2-0.3,1.5,0.3l2.1,4V15.4z M33.7,9.5l-6.2,5.6c-0.4,0.4-1.2,0.3-1.5-0.2l-2.6-4.5c-0.2-0.4-0.1-0.9,0.2-1.2l6.1-4.9
		c0.4-0.3,1.1-0.3,1.4,0.2l2.6,3.8C34.1,8.7,34,9.2,33.7,9.5z M30,38.8l-2.8-0.7c-0.3-0.1-0.7,0-0.9,0.3l-7.1,7.3
		c-0.4,0.4-1,0.4-1.3,0L16,44c-0.4-0.4-0.4-1,0-1.3l1.3-1.3c0.4-0.4,0.4-1,0-1.4h0c-0.4-0.4-1-0.4-1.4,0l-1.3,1.3
		c-0.4,0.4-1,0.4-1.4,0l-0.2-0.2c-0.4-0.4-0.4-1,0-1.4l5.1-5.1c0.4-0.4,0.4-1,0-1.4h0c-0.4-0.4-1-0.4-1.4,0l-5.2,5.2
		c-0.4,0.4-1,0.4-1.3,0l-2.7-2.7c-0.4-0.4-0.4-0.9,0-1.3l7.5-8.3c0.2-0.3,0.3-0.6,0.2-1l-2.4-6.5c-0.1-0.4,0-0.8,0.3-1.1l7.5-6
		c0.5-0.4,1.1-0.2,1.4,0.3l6.6,11.4c0.2,0.4,0.1,0.9-0.2,1.2l-1.9,1.7c-0.4,0.4-1.1,0.3-1.4-0.2l-3.6-6c-0.3-0.5-0.9-0.6-1.3-0.3
		l0,0c-0.5,0.3-0.6,0.9-0.3,1.3l1.6,2.7c0.2,0.4,0.2,0.8-0.1,1.2l-1.2,1.2c-0.4,0.4-0.4,1,0,1.4l0,0c0.4,0.4,1,0.4,1.4,0l0.5-0.5
		c0.4-0.4,1.2-0.3,1.5,0.2l1.2,1.9c0.3,0.4,0.8,0.6,1.3,0.3l0.9-0.5l-0.1-0.2l2.5-2.2c0.4-0.4,1.2-0.3,1.5,0.2l4.1,7.1
		c0.2,0.4,0.2,0.8-0.2,1.1l-3.7,3.7C30.7,38.8,30.3,38.9,30,38.8z"/>
</g>
</svg>
