<?xml version="1.0" encoding="utf-8"?>
<!-- Generator: Adobe Illustrator 20.1.0, SVG Export Plug-In . SVG Version: 6.00 Build 0)  -->
<svg version="1.1" baseProfile="tiny" xmlns="http://www.w3.org/2000/svg" xmlns:xlink="http://www.w3.org/1999/xlink" x="0px"
	 y="0px" viewBox="0 0 50 50" overflow="scroll" xml:space="preserve">
<g id="Layer_3" display="none">
	<rect x="-75.8" y="-11.8" display="inline" width="155" height="149.8"/>
</g>
<g id="Layer_1">
	<g>
		<path fill="#FFFFFF" d="M16.6,23.1L16.6,23.1c-0.4-0.4-0.4-1,0-1.4l3.2-3.2c0.4-0.4,1-0.4,1.4,0l1,1c0.4,0.4,1,0.4,1.4,0l2.7-2.7
			c0.4-0.4,1-0.4,1.4,0l1,1c0.4,0.4,1,0.4,1.4,0l2-2c0.4-0.4,1-0.4,1.4,0l0,0c0.4,0.4,0.4,1,0,1.4l-3.4,3.4c-0.4,0.4-1,0.4-1.4,0
			l-1-1c-0.4-0.4-1-0.4-1.4,0l-2.7,2.7c-0.4,0.4-1,0.4-1.4,0l-1-1c-0.4-0.4-1-0.4-1.4,0L18,23.1C17.6,23.4,17,23.4,16.6,23.1z"/>
	</g>
</g>
<g id="Layer_2">
	<g>
		<path fill="#FFFFFF" d="M25,7L25,7c-0.6,0-1-0.4-1-1v0c0-0.6,0.4-1,1-1h0c0.6,0,1,0.4,1,1v0C26,6.6,25.6,7,25,7z"/>
		<path fill="#FFFFFF" d="M17,37h16c0.6,0,1-0.4,1-1l0,0c0-0.6-0.4-1-1-1H17c-0.6,0-1,0.4-1,1l0,0C16,36.6,16.4,37,17,37z"/>
		<path fill="#FFFFFF" d="M39.4,6H35V5h-4c-0.6,0-1-0.4-1-1V2c0-0.6-0.4-1-1-1h-8c-0.6,0-1,0.4-1,1v2c0,0.6-0.4,1-1,1h-4v1h-4H8
			C7.4,6,7,6.4,7,7v41c0,0.6,0.4,1,1,1h34c0.6,0,1-0.4,1-1V7c0-0.6-0.4-1-1-1H39.4z M18,7h3c0.6,0,1-0.4,1-1V4c0-0.6,0.4-1,1-1h4
			c0.6,0,1,0.4,1,1v2c0,0.6,0.4,1,1,1h3c0.6,0,1,0.4,1,1v1c0,0.6-0.4,1-1,1H18c-0.6,0-1-0.4-1-1V8C17,7.4,17.4,7,18,7z M14,8L14,8
			c0.6,0,1,0.4,1,1v2c0,0.6,0.4,1,1,1h18c0.6,0,1-0.4,1-1V9c0-0.6,0.4-1,1-1l0,0c0.6,0,1,0.4,1,1v33c0,0.6-0.4,1-1,1H14
			c-0.6,0-1-0.4-1-1V9C13,8.4,13.4,8,14,8z M40,47H10c-0.6,0-1-0.4-1-1V9c0-0.6,0.4-1,1-1h0c0.6,0,1,0.4,1,1v35c0,0.6,0.4,1,1,1h26
			c0.6,0,1-0.4,1-1V9c0-0.6,0.4-1,1-1l0,0c0.6,0,1,0.4,1,1v37C41,46.6,40.6,47,40,47z"/>
		<path fill="#FFFFFF" d="M17,29h16c0.6,0,1-0.4,1-1v0c0-0.6-0.4-1-1-1H17c-0.6,0-1,0.4-1,1v0C16,28.6,16.4,29,17,29z"/>
		<path fill="#FFFFFF" d="M17,33h16c0.6,0,1-0.4,1-1v0c0-0.6-0.4-1-1-1H17c-0.6,0-1,0.4-1,1v0C16,32.6,16.4,33,17,33z"/>
		<path fill="#FFFFFF" d="M25,7L25,7c0.6,0,1-0.4,1-1v0c0-0.6-0.4-1-1-1h0c-0.6,0-1,0.4-1,1v0C24,6.6,24.4,7,25,7z"/>
	</g>
</g>
</svg>
