<?xml version="1.0" encoding="utf-8"?>
<!-- Generator: Adobe Illustrator 20.1.0, SVG Export Plug-In . SVG Version: 6.00 Build 0)  -->
<svg version="1.1" baseProfile="tiny" xmlns="http://www.w3.org/2000/svg" xmlns:xlink="http://www.w3.org/1999/xlink" x="0px"
	 y="0px" viewBox="0 0 32 32" overflow="scroll" xml:space="preserve">
<g id="Layer_3">
</g>
<g id="Layer_1">
</g>
<g id="Layer_2">
</g>
<g id="Layer_4">
	<g display="none">
		<ellipse transform="matrix(0.6336 -0.7737 0.7737 0.6336 7.3288 21.9623)" display="inline" cx="26.9" cy="3.2" rx="1" ry="1"/>
		<g display="inline">
			<g>
				<ellipse transform="matrix(0.6336 -0.7737 0.7737 0.6336 -4.4703 12.6681)" cx="11.1" cy="11.1" rx="1.5" ry="1.5"/>
				<ellipse transform="matrix(0.6336 -0.7737 0.7737 0.6336 -1.2292 19.512)" cx="20" cy="11.1" rx="1.5" ry="1.5"/>
			</g>
			<path fill="none" stroke="#000000" stroke-width="2" stroke-linecap="round" stroke-miterlimit="10" d="M10.7,16.6
				c0.6,2.7,2.6,3.8,5,3.8s4.4-1.2,5-3.8"/>
		</g>
		
			<path display="inline" fill="none" stroke="#000000" stroke-width="2" stroke-linecap="round" stroke-linejoin="round" stroke-miterlimit="10" d="
			M30.5,6.2v17.2c0,1.7-1.3,3-3,3h-7c-1.1,0-2.2,0.3-3.1,0.7l-10,5.1c-1,0.5-2.2-0.2-2.2-1.4l0-2.7c0-1-0.8-1.8-1.7-1.8h0
			c-1.7,0-3-1.3-3-3V6.2c0-1.7,1.3-3,3-3h20.2"/>
	</g>
	<g>
		<g>
			<ellipse transform="matrix(0.6336 -0.7737 0.7737 0.6336 8.5063 21.6152)" fill="#FFFFFF" cx="27.1" cy="1.8" rx="1" ry="1"/>
		</g>
		<g>
			<g>
				<g>
					
						<ellipse transform="matrix(0.6336 -0.7737 0.7737 0.6336 -2.9623 12.5814)" fill="#FFFFFF" cx="11.8" cy="9.4" rx="1.5" ry="1.5"/>
				</g>
				<g>
					
						<ellipse transform="matrix(0.6336 -0.7737 0.7737 0.6336 0.1881 19.2336)" fill="#FFFFFF" cx="20.4" cy="9.4" rx="1.5" ry="1.5"/>
				</g>
			</g>
			<g>
				<path fill="#FFFFFF" d="M16.2,19.4c-3,0-5.2-1.7-5.8-4.5c-0.1-0.5,0.2-1,0.8-1.1c0.5-0.1,1,0.2,1.1,0.8c0.5,2.6,2.7,3,3.9,3
					s3.3-0.4,3.9-3c0.1-0.5,0.6-0.9,1.1-0.8c0.5,0.1,0.9,0.6,0.8,1.1C21.4,17.7,19.3,19.4,16.2,19.4z"/>
			</g>
		</g>
		<g>
			<path fill="#FFFFFF" d="M7.4,31.2c-0.5,0-0.9-0.1-1.3-0.4C5.4,30.3,5,29.6,5,28.7l0-2.6c0-0.2-0.1-0.4-0.2-0.5
				c-0.1-0.1-0.3-0.2-0.5-0.2c-2.1,0-3.9-1.7-3.9-3.9V4.7c0-2.1,1.7-3.9,3.9-3.9H24c0.5,0,1,0.4,1,1s-0.4,1-1,1H4.3
				c-1.1,0-1.9,0.9-1.9,1.9v16.8c0,1.1,0.9,1.9,1.9,1.9c0.7,0,1.4,0.3,1.9,0.8c0.5,0.5,0.8,1.2,0.8,1.9l0,2.6c0,0.3,0.2,0.4,0.2,0.4
				c0.1,0,0.3,0.1,0.5,0l9.7-4.9c1.1-0.5,2.3-0.8,3.5-0.8h6.8c1.1,0,1.9-0.9,1.9-1.9V4.7c0-0.5,0.4-1,1-1c0.5,0,1,0.4,1,1v16.8
				c0,2.1-1.7,3.9-3.9,3.9h-6.8c-0.9,0-1.8,0.2-2.6,0.6l-9.7,4.9C8.2,31.1,7.8,31.2,7.4,31.2z"/>
		</g>
	</g>
</g>
</svg>
