<?xml version="1.0" encoding="utf-8"?>
<!-- Generator: Adobe Illustrator 20.1.0, SVG Export Plug-In . SVG Version: 6.00 Build 0)  -->
<svg version="1.1" baseProfile="tiny" xmlns="http://www.w3.org/2000/svg" xmlns:xlink="http://www.w3.org/1999/xlink" x="0px"
	 y="0px" viewBox="0 0 50 50" overflow="scroll" xml:space="preserve">
<g id="Layer_3" display="none">
	<rect x="-9.8" y="-11.8" display="inline" width="155" height="149.8"/>
</g>
<g id="Layer_1">
	<g display="none">
		
			<rect x="5.5" y="38" transform="matrix(0.7071 -0.7071 0.7071 0.7071 -27.0235 18.0958)" display="inline" fill="none" stroke="#000000" stroke-width="2" stroke-miterlimit="10" width="5.6" height="7.3"/>
		
			<rect x="9.5" y="26.7" transform="matrix(0.7071 -0.7071 0.7071 0.7071 -23.04 19.7458)" display="inline" fill="none" stroke="#000000" stroke-width="2" stroke-miterlimit="10" width="5.6" height="22"/>
		
			<rect x="13.5" y="19.4" transform="matrix(0.7071 -0.7071 0.7071 0.7071 -19.0069 21.4164)" display="inline" fill="none" stroke="#000000" stroke-width="2" stroke-miterlimit="10" width="5.6" height="28.5"/>
		
			<rect x="39.4" y="4.1" transform="matrix(-0.7071 0.7071 -0.7071 -0.7071 77.6186 -16.6771)" display="inline" fill="none" stroke="#000000" stroke-width="2" stroke-miterlimit="10" width="5.6" height="7.3"/>
		
			<rect x="35.4" y="0.8" transform="matrix(-0.7071 0.7071 -0.7071 -0.7071 73.5854 -6.9403)" display="inline" fill="none" stroke="#000000" stroke-width="2" stroke-miterlimit="10" width="5.6" height="22"/>
		
			<rect x="30.9" y="1.2" transform="matrix(-0.7071 0.7071 -0.7071 -0.7071 68.3915 2.5231)" display="inline" fill="none" stroke="#000000" stroke-width="2" stroke-miterlimit="10" width="5.6" height="28.5"/>
		
			<rect x="22.5" y="14.8" transform="matrix(0.7071 0.7071 -0.7071 0.7071 24.8623 -10.6878)" display="inline" fill="none" stroke="#000000" stroke-width="2" stroke-miterlimit="10" width="5.6" height="19.6"/>
	</g>
	<g display="none">
		<g display="inline">
			<path d="M8.9,47.7l-6.6-6.6l5.4-5.4l6.6,6.6L8.9,47.7z M5.2,41.1l3.8,3.8l2.6-2.6l-3.8-3.8L5.2,41.1z"/>
		</g>
		<g display="inline">
			<path d="M18.1,48.9l-17-17l5.4-5.4l17,17L18.1,48.9z M4,31.9L18.1,46l2.6-2.6L6.5,29.3L4,31.9z"/>
		</g>
		<g display="inline">
			<path d="M24.4,47.1L2.9,25.6l5.4-5.4l21.6,21.6L24.4,47.1z M5.7,25.6l18.8,18.8l2.6-2.6L8.3,23L5.7,25.6z"/>
		</g>
		<g display="inline">
			<path d="M42.9,13.7l-6.6-6.6l5.4-5.4l6.6,6.6L42.9,13.7z M39.1,7.1l3.8,3.8l2.6-2.6l-3.8-3.8L39.1,7.1z"/>
		</g>
		<g display="inline">
			<path d="M44,23L27,6l5.4-5.4l17,17L44,23z M29.9,6L44,20.1l2.6-2.6L32.4,3.4L29.9,6z"/>
		</g>
		<g display="inline">
			<path d="M41.8,28.9L20.2,7.3l5.4-5.4l21.6,21.6L41.8,28.9z M23,7.3l18.8,18.8l2.6-2.6L25.6,4.8L23,7.3z"/>
		</g>
		<g display="inline">
			<polygon points="22.9,29.7 20.4,32.2 17.8,29.6 25.2,22.2 23.8,20.8 15,29.6 20.4,35 24.3,31.1 			"/>
			<polygon points="30.3,17.1 32.9,19.7 25.3,27.3 26.7,28.7 35.7,19.7 30.3,14.3 26.2,18.4 27.6,19.8 			"/>
		</g>
	</g>
	<g>
		<path fill="#FFFFFF" d="M48.7,16.8l-3.8-3.8c-0.4-0.4-0.4-1,0-1.4L47.6,9c0.4-0.4,0.4-1,0-1.4l-5.2-5.2c-0.4-0.4-1-0.4-1.4,0
			l-2.6,2.6c-0.4,0.4-1,0.4-1.4,0l-3.8-3.8c-0.4-0.4-1-0.4-1.4,0L29,4c-0.4,0.4-1,0.4-1.4,0l-1.3-1.3c-0.4-0.4-1-0.4-1.4,0l-4,4
			c-0.4,0.4-0.4,1,0,1.4l7.1,7.1c0.4,0.4,0.4,1,0,1.4l-1.1,1.1c-0.4,0.4-0.4,1,0,1.4l0,0c0.4,0.4,1,0.4,1.4,0l1.1-1.1
			c0.4-0.4,1-0.4,1.4,0l1.2,1.2c0.4,0.4,0.4,1,0,1.4l-6,6c-0.4,0.4-0.4,1,0,1.4l0,0c0.4,0.4,1,0.4,1.4,0l6-6c0.4-0.4,1-0.4,1.4,0
			l6.2,6.2c0.4,0.4,1,0.4,1.4,0l4-4c0.4-0.4,0.4-1,0-1.4L46,22.4c-0.4-0.4-0.4-1,0-1.4l2.7-2.7C49.1,17.9,49.1,17.2,48.7,16.8z
			 M42.4,5.3l2.4,2.4c0.4,0.4,0.4,1,0,1.4l-1.2,1.2c-0.4,0.4-1,0.4-1.4,0l-2.4-2.4c-0.4-0.4-0.4-1,0-1.4L41,5.3
			C41.3,4.9,42,4.9,42.4,5.3z M33.2,4.1l12.7,12.7c0.4,0.4,0.4,1,0,1.4l-1.2,1.2c-0.4,0.4-1,0.4-1.4,0L30.6,6.7
			c-0.4-0.4-0.4-1,0-1.4l1.2-1.2C32.1,3.7,32.8,3.7,33.2,4.1z M23.7,8c-0.4-0.4-0.4-1,0-1.4l1.2-1.2c0.4-0.4,1-0.4,1.4,0l17.3,17.3
			c0.4,0.4,0.4,1,0,1.4l-1.2,1.2c-0.4,0.4-1,0.4-1.4,0l-5.5-5.5L23.7,8z"/>
		<path fill="#FFFFFF" d="M22.5,32.9l1.1-1.1c0.4-0.4,0.4-1,0-1.4l0,0c-0.4-0.4-1-0.4-1.4,0l-1.1,1.1c-0.4,0.4-1,0.4-1.4,0l-1.2-1.2
			c-0.4-0.4-0.4-1,0-1.4l6-6c0.4-0.4,0.4-1,0-1.4l0,0c-0.4-0.4-1-0.4-1.4,0l-6,6c-0.4,0.4-1,0.4-1.4,0L9,20.9c-0.4-0.4-1-0.4-1.4,0
			l-4,4c-0.4,0.4-0.4,1,0,1.4l0.9,0.9c0.4,0.4,0.4,1,0,1.4l-2.6,2.6c-0.4,0.4-0.4,1,0,1.4l3.8,3.8c0.4,0.4,0.4,1,0,1.4L3,40.4
			c-0.4,0.4-0.4,1,0,1.4L8.2,47c0.4,0.4,1,0.4,1.4,0l2.6-2.6c0.4-0.4,1-0.4,1.4,0l3.8,3.8c0.4,0.4,1,0.4,1.4,0l2.6-2.6
			c0.4-0.4,1-0.4,1.4,0l0.9,0.9c0.4,0.4,1,0.4,1.4,0l4-4c0.4-0.4,0.4-1,0-1.4l-6.7-6.7C22.1,34,22.1,33.3,22.5,32.9z M8.2,44.1
			l-2.4-2.4c-0.4-0.4-0.4-1,0-1.4L7,39.2c0.4-0.4,1-0.4,1.4,0l2.4,2.4c0.4,0.4,0.4,1,0,1.4l-1.2,1.2C9.2,44.5,8.6,44.5,8.2,44.1z
			 M18.8,45.3c-0.4,0.4-1,0.4-1.4,0l-3.1-3.1l0,0l-6.6-6.6l0,0l-3.1-3.1c-0.4-0.4-0.4-1,0-1.4L5.8,30c0.4-0.4,1-0.4,1.4,0L20,42.8
			c0.4,0.4,0.4,1,0,1.4L18.8,45.3z M6.4,24.9l1.2-1.2c0.4-0.4,1-0.4,1.4,0L26.3,41c0.4,0.4,0.4,1,0,1.4l-1.2,1.2
			c-0.4,0.4-1,0.4-1.4,0L6.4,26.3C6,25.9,6,25.2,6.4,24.9z"/>
	</g>
</g>
<g id="Layer_2">
</g>
</svg>
