<?xml version="1.0" encoding="utf-8"?>
<!-- Generator: Adobe Illustrator 20.1.0, SVG Export Plug-In . SVG Version: 6.00 Build 0)  -->
<svg version="1.1" baseProfile="tiny" xmlns="http://www.w3.org/2000/svg" xmlns:xlink="http://www.w3.org/1999/xlink" x="0px"
	 y="0px" viewBox="585.2 657.6 909.6 354.1" overflow="scroll" xml:space="preserve">
<g id="Vert">
	<g id="Logo_1_">
		<g id="Athletics">
			<path fill="#FFFFFF" d="M692.5,971.8v13.5h-31.7v-13.6l4.7-1.8l-1.6-5.5h-13.5l-1.5,5.5l4.4,1.8v13.6h-26.8v-13.6l6.9-1.8
				l9.1-31.7l-5.8-1.8v-13.7h36.1l12,47.2L692.5,971.8z M653.1,953.7h7.9l-4-14L653.1,953.7z"/>
			<path fill="#FFFFFF" d="M773.4,948.6l-1.8-11.3h-6.9v32.7l7.7,1.9v13.5h-33.7v-13.5l7.6-1.8v-32.8h-6.9l-1.8,11.3h-13.2v-25.8
				h62.1v25.8L773.4,948.6L773.4,948.6z"/>
			<path fill="#FFFFFF" d="M883.8,938.3v31.7l6.8,1.8v13.6h-29.4v-13.6l4-1.8v-10.9h-15.1v10.9l4.1,1.8v13.6h-29.4v-13.6l6.8-1.8
				v-31.7l-6.8-1.8v-13.7h29.4v13.7l-4.1,1.8v10.1h15.1v-10.1l-4-1.8v-13.7h29.4v13.7L883.8,938.3z"/>
			<path fill="#FFFFFF" d="M956.9,938.3v31.7h14.8l1.8-8.5h13.2v23.8h-55.1v-13.6l6.8-1.8v-31.7l-6.8-1.8v-13.7h32.8v13.7
				L956.9,938.3z"/>
			<path fill="#FFFFFF" d="M1067.1,944.7l-1.8-6.5h-15v10.2h15v10.7h-15v10.9h15l1.8-6.5h13.2v21.9h-55.2v-13.6l6.8-1.8v-31.7
				l-6.8-1.8v-13.7h55.1v21.9L1067.1,944.7L1067.1,944.7z"/>
			<path fill="#FFFFFF" d="M1167.7,948.6l-1.8-11.3h-6.9v32.7l7.7,1.9v13.5H1133v-13.5l7.6-1.8v-32.8h-6.9l-1.8,11.3h-13.2v-25.8
				h62.1v25.8L1167.7,948.6L1167.7,948.6z"/>
			<path fill="#FFFFFF" d="M1246.5,938.3v31.7l6.8,1.8v13.6h-32v-13.6l6.8-1.8v-31.7l-6.8-1.8v-13.7h32v13.7L1246.5,938.3z"/>
			<path fill="#FFFFFF" d="M1348.3,944.7h-16.7l-1.8-6.5h-12.3l-2.6,2.1v27.6l2.7,2.2h12.2l1.8-6.5h16.7v11.3
				c-2.1,1.8-4.2,3.6-6.3,5.3c-2.1,1.8-4.3,3.5-6.3,5.2h-24.7l-14.4-12v-39l13.8-11.5h25.8l12.1,10.1L1348.3,944.7L1348.3,944.7z"/>
			<path fill="#FFFFFF" d="M1440.5,944.7h-16.7l-1.8-6.5h-12.4l-2.3,1.8v3.7l2,1.5l21.5,3.6l10.4,8.1v17.9l-12.8,10.5h-26.9
				l-12.7-10.5v-11.3h16.7l1.8,6.5h13l2.2-1.9v-4.2l-1.7-1.5l-21.4-3.6l-10.6-8.8V933l12.1-10.2h27.3l12.1,10.1L1440.5,944.7
				L1440.5,944.7z"/>
		</g>
		<g id="Boom">
			<path fill="#FFFFFF" d="M609.5,688H742c17.8,0,30.8,4,39.2,12.1c8.3,8.1,12.5,20.4,12.5,36.9c0,10.9-2.4,19.7-7.1,26.5
				c-4.7,6.8-10.5,11.6-17.4,14.3c14.7,4,24.7,13.8,29.9,29.4c1.8,5.6,2.7,12.2,2.7,19.6c0,17.8-4.2,30.8-12.5,39.2
				c-8.3,8.3-21.4,12.5-39.2,12.5H609.5l23.7-37.8V724.1L609.5,688z M744.7,742.4c0-10.9-5.4-16.3-16.3-16.3h-46.3v38.1h46.3
				c10.9,0,16.3-5.4,16.3-16.3V742.4z M752.9,818.6c0-10.9-5.4-16.3-16.3-16.3h-54.4v38.1h54.4c10.9,0,16.3-5.4,16.3-16.3V818.6z"/>
			<path fill="#FFFFFF" d="M997.8,826.7c0,19-4.3,32.9-12.9,41.5c-8.6,8.6-22.5,12.9-41.5,12.9h-68c-19,0-32.9-4.3-41.5-12.9
				c-8.6-8.6-12.9-22.5-12.9-41.5v-87.1c0-19,4.3-32.9,12.9-41.5c8.6-8.6,22.5-12.9,41.5-12.9h68c19,0,32.9,4.3,41.5,12.9
				c8.6,8.6,12.9,22.5,12.9,41.5V826.7z M948.8,739.7c0-10.9-5.4-16.3-16.3-16.3h-46.3c-10.9,0-16.3,5.4-16.3,16.3v87.1
				c0,10.9,5.4,16.3,16.3,16.3h46.3c10.9,0,16.3-5.4,16.3-16.3V739.7z"/>
			<path fill="#FFFFFF" d="M1196.4,826.7c0,19-4.3,32.9-12.9,41.5c-8.6,8.6-22.4,12.9-41.5,12.9h-68c-19,0-32.9-4.3-41.5-12.9
				c-8.6-8.6-12.9-22.5-12.9-41.5v-87.1c0-19,4.3-32.9,12.9-41.5c8.6-8.6,22.5-12.9,41.5-12.9h68c19,0,32.9,4.3,41.5,12.9
				c8.6,8.6,12.9,22.5,12.9,41.5V826.7z M1147.4,739.7c0-10.9-5.4-16.3-16.3-16.3h-46.3c-10.9,0-16.3,5.4-16.3,16.3v87.1
				c0,10.9,5.4,16.3,16.3,16.3h46.3c10.9,0,16.3-5.4,16.3-16.3V739.7z"/>
			<path fill="#FFFFFF" d="M1386.8,772.3l-38.1,68h-38.1l-38.1-68v106.1h-49V688h51.7l54.4,100.7l54.4-100.7h75.4l-23.7,36.1v116.6
				l23.7,37.8h-72.6L1386.8,772.3L1386.8,772.3z"/>
		</g>
	</g>
</g>
<g id="Horiz">
</g>
</svg>
