<?xml version="1.0" encoding="utf-8"?>
<!-- Generator: Adobe Illustrator 20.1.0, SVG Export Plug-In . SVG Version: 6.00 Build 0)  -->
<svg version="1.1" baseProfile="tiny" xmlns="http://www.w3.org/2000/svg" xmlns:xlink="http://www.w3.org/1999/xlink" x="0px"
	 y="0px" viewBox="585.2 -230.5 909.6 888.2" overflow="scroll" xml:space="preserve">
<g id="Vert">
	<g id="Logo_1_">
		<path id="Helmet" fill="#FFFFFF" d="M1473.2-210.5c-145.9,204.5-266,253.4-266,253.4c45.9,33.4,52.8,86.4,49.8,127
			c-4.8,35.1-17.4,3.9-17.4,3.9c-7.2-22.8-29.5-83.7-61.8-93.3c6,24.7-76.5,67.5-76.5,67.5c76.9-55.5,65.2-83.4,65.2-83.4
			s-11.1-29.7-133.4-58.3C910.7,35.1,899.7,64.6,899.7,64.6s-11.5,27.9,65.2,83.4c0,0-82.6-42.7-76.5-67.5
			c-32.4,9.6-54.6,70.6-61.8,93.3c0,0,0,0,0,0.1l-0.1-0.1c0,0-12.6,31.2-17.4-3.9c-3-40.6,3.9-93.6,49.8-127
			c0,0-120.1-48.9-266-253.4c0,0-10.5,33,86.4,162.5c0,0-37.3-12.3-47.8-19.8L657,21.3c0,0,23.2,36.4,47.8,56.8
			c0,0-13.9,5.7-26.8,5.7l15.1,50.5l32.5,27.9l-15,11.2l15,9.3l-10.3,7.9v23.8c0,0,94.6,64.8,103.9,168.2c0,0-48-85.2-56.1-72.7
			c0,0,47.8,112.5-29.2,161.3c0,0,105,37.5,138.8,152.2l45.4,13.6l63-190.9l-36.1-14.8c0,0-54.3,66.3-86.4-35.2
			c-37.9-120.3,1.3-153.5,106-93.9c0,0-2.5-25.3-18.3-48.3c26.5,26.8,31.6,53,38.8,74.3c26.4,13.5,47.1,25.2,47.8,25.5
			c0.6-0.3,21.4-12,47.8-25.5c7.2-21,12.2-47,38.4-73.8c-15.5,22.9-18,47.8-18,47.8c104.7-59.7,143.9-26.4,106,93.9
			c-32.1,101.5-86.4,35.2-86.4,35.2l-36.1,14.8l63,190.9l45.4-13.6c33.9-114.7,138.8-152.2,138.8-152.2
			c-77.1-48.9-29.2-161.3-29.2-161.3c-8.1-12.4-56.1,72.7-56.1,72.7c9.3-103.5,103.9-168.2,103.9-168.2v-23.8l-10.3-7.9l15-9.3
			l-15-11.2l32.5-27.9l15.1-50.5c-12.9,0-26.8-5.7-26.8-5.7c24.4-20.4,47.8-56.8,47.8-56.8l25.6-89.1c-10.5,7.5-47.8,19.8-47.8,19.8
			C1483.7-177.6,1473.2-210.5,1473.2-210.5z"/>
	</g>
</g>
<g id="Horiz">
</g>
</svg>
