<?xml version="1.0" encoding="utf-8"?>
<!-- Generator: Adobe Illustrator 19.1.0, SVG Export Plug-In . SVG Version: 6.00 Build 0)  -->
<svg version="1.1" id="Layer_1" xmlns="http://www.w3.org/2000/svg" xmlns:xlink="http://www.w3.org/1999/xlink" x="0px" y="0px"
	 viewBox="0 0 63.6 52.8" style="enable-background:new 0 0 63.6 52.8;" xml:space="preserve">
<style type="text/css">
	.st0{fill:none;stroke:#000000;stroke-width:3;stroke-linecap:round;stroke-linejoin:round;stroke-miterlimit:10;}
	.st1{fill:none;stroke:#000000;stroke-width:2;stroke-linecap:round;stroke-linejoin:round;stroke-miterlimit:10;}
	.st2{stroke:#000000;stroke-miterlimit:10;}
	.st3{fill:none;stroke:#000000;stroke-width:2;stroke-linecap:round;stroke-miterlimit:10;}
	.st4{fill:none;stroke:#000000;stroke-linecap:round;stroke-miterlimit:10;}
	.st5{fill:none;stroke:#000000;stroke-width:4;stroke-linejoin:round;stroke-miterlimit:10;}
</style>
<path d="M61,38.5h-4V8.6H7.4v29.9h-4V6.6c0-1.1,0.9-2,2-2H59c1.1,0,2,0.9,2,2V38.5z"/>
<polygon points="63.6,48.8 0,48.8 0,42.8 28.3,42.8 28.3,45.1 36,45.1 36,42.8 63.6,42.8 "/>
<path d="M41.8,34.9c-6.4,0-12.9,0-19.3,0c0-1.2,0-2.3,0-3.5c2.1-1.1,4.3-2.2,6.4-3.4c0.9-0.5,1.4-1.1,0.7-2.2
	c-1.2-1.7-1.7-3.6-1.5-5.8c0.2-2.3,0.8-3.9,2.9-4.9c0.9-0.4,1.7-0.3,2.7,0c0.9,0.3,2.4,1.5,2.6,2.8c0.4,2.7,0.9,5.4-1.1,7.8
	c-0.8,1-0.4,1.7,0.5,2.2c1.4,0.8,2.8,1.6,4.2,2.3C42.4,31.5,41.8,31.8,41.8,34.9z"/>
</svg>
