<svg xmlns="http://www.w3.org/2000/svg" xmlns:xlink="http://www.w3.org/1999/xlink" version="1.1" x="0px" y="0px" viewBox="0 0 100 125" style="enable-background:new 0 0 100 100;" xml:space="preserve"><g><path d="M50,17c-18.2,0-33,14.8-33,33c0,18.2,14.8,33,33,33c18.2,0,33-14.8,33-33C83,31.8,68.2,17,50,17z M38,36.3c2.2,0,4,1.8,4,4   s-1.8,4-4,4s-4-1.8-4-4S35.8,36.3,38,36.3z M50,69c-8.8,0-16-6.2-16-13.9c0-1.2,1-2.1,2.3-2.1c1.3,0,2.3,0.9,2.3,2.1   c0,5.3,5.1,9.7,11.4,9.7c6.3,0,11.4-4.3,11.4-9.7c0-1.2,1-2.1,2.3-2.1c1.3,0,2.3,0.9,2.3,2.1C66,62.8,58.8,69,50,69z M62,44.3   c-2.2,0-4-1.8-4-4s1.8-4,4-4c2.2,0,4,1.8,4,4S64.2,44.3,62,44.3z"/></g><text x="0" y="115" fill="#000000" font-size="5px" font-weight="bold" font-family="'Helvetica Neue', Helvetica, Arial-Unicode, Arial, Sans-serif">Created by Agni</text><text x="0" y="120" fill="#000000" font-size="5px" font-weight="bold" font-family="'Helvetica Neue', Helvetica, Arial-Unicode, Arial, Sans-serif">from the Noun Project</text></svg>