<svg xmlns="http://www.w3.org/2000/svg" xmlns:xlink="http://www.w3.org/1999/xlink" version="1.1" x="0px" y="0px" viewBox="0 0 100 100" enable-background="new 0 0 100 100" xml:space="preserve"><g><path fill="#1f5094" d="M50,37.4c-3.8,0-6.9,3.1-7,6.9h0v2.5h14v-2.5h0C56.9,40.4,53.8,37.4,50,37.4z"/><path fill="#1f5094" d="M50,5c0,0-20,17.6-40.1,17.6c0,17.3,0.1,34.2,7.5,47.3C25,83.3,39.8,92.7,50,95c10.1-2.6,24.3-12.1,31.8-25.2   c7.5-13.1,8.3-29.8,8.3-47.2C70,22.6,50,5,50,5z M62,63.4c0,1.2-1,2.3-2.3,2.3H40.3c-1.2,0-2.3-1-2.3-2.3V46.8h2v-2.5h0   c0.1-5.5,4.5-9.9,10-9.9s9.9,4.4,10,9.9h0v2.5h2V63.4z"/></g></svg>