<?xml version="1.0" encoding="utf-8"?>
<!-- Generator: Adobe Illustrator 20.1.0, SVG Export Plug-In . SVG Version: 6.00 Build 0)  -->
<svg version="1.1" baseProfile="tiny" id="Layer_1" xmlns="http://www.w3.org/2000/svg" xmlns:xlink="http://www.w3.org/1999/xlink"
	 x="0px" y="0px" viewBox="0 0 50 50" overflow="scroll" xml:space="preserve">
<g display="none">
	
		<rect x="5.5" y="38" transform="matrix(0.7071 -0.7071 0.7071 0.7071 -27.0235 18.0958)" display="inline" fill="none" stroke="#000000" stroke-width="2" stroke-miterlimit="10" width="5.6" height="7.3"/>
	
		<rect x="9.5" y="26.7" transform="matrix(0.7071 -0.7071 0.7071 0.7071 -23.04 19.7458)" display="inline" fill="none" stroke="#000000" stroke-width="2" stroke-miterlimit="10" width="5.6" height="22"/>
	
		<rect x="13.5" y="19.4" transform="matrix(0.7071 -0.7071 0.7071 0.7071 -19.0069 21.4164)" display="inline" fill="none" stroke="#000000" stroke-width="2" stroke-miterlimit="10" width="5.6" height="28.5"/>
	
		<rect x="39.4" y="4.1" transform="matrix(-0.7071 0.7071 -0.7071 -0.7071 77.6186 -16.6771)" display="inline" fill="none" stroke="#000000" stroke-width="2" stroke-miterlimit="10" width="5.6" height="7.3"/>
	
		<rect x="35.4" y="0.8" transform="matrix(-0.7071 0.7071 -0.7071 -0.7071 73.5854 -6.9403)" display="inline" fill="none" stroke="#000000" stroke-width="2" stroke-miterlimit="10" width="5.6" height="22"/>
	
		<rect x="30.9" y="1.2" transform="matrix(-0.7071 0.7071 -0.7071 -0.7071 68.3915 2.5231)" display="inline" fill="none" stroke="#000000" stroke-width="2" stroke-miterlimit="10" width="5.6" height="28.5"/>
	
		<rect x="22.5" y="14.8" transform="matrix(0.7071 0.7071 -0.7071 0.7071 24.8623 -10.6878)" display="inline" fill="none" stroke="#000000" stroke-width="2" stroke-miterlimit="10" width="5.6" height="19.6"/>
</g>
<g display="none">
	<g display="inline">
		<path d="M8.9,47.7l-6.6-6.6l5.4-5.4l6.6,6.6L8.9,47.7z M5.2,41.1l3.8,3.8l2.6-2.6l-3.8-3.8L5.2,41.1z"/>
	</g>
	<g display="inline">
		<path d="M18.1,48.9l-17-17l5.4-5.4l17,17L18.1,48.9z M4,31.9L18.1,46l2.6-2.6L6.5,29.3L4,31.9z"/>
	</g>
	<g display="inline">
		<path d="M24.4,47.1L2.9,25.6l5.4-5.4l21.6,21.6L24.4,47.1z M5.7,25.6l18.8,18.8l2.6-2.6L8.3,23L5.7,25.6z"/>
	</g>
	<g display="inline">
		<path d="M42.9,13.7l-6.6-6.6l5.4-5.4l6.6,6.6L42.9,13.7z M39.1,7.1l3.8,3.8l2.6-2.6l-3.8-3.8L39.1,7.1z"/>
	</g>
	<g display="inline">
		<path d="M44,23L27,6l5.4-5.4l17,17L44,23z M29.9,6L44,20.1l2.6-2.6L32.4,3.4L29.9,6z"/>
	</g>
	<g display="inline">
		<path d="M41.8,28.9L20.2,7.3l5.4-5.4l21.6,21.6L41.8,28.9z M23,7.3l18.8,18.8l2.6-2.6L25.6,4.8L23,7.3z"/>
	</g>
	<g display="inline">
		<polygon points="22.9,29.7 20.4,32.2 17.8,29.6 25.2,22.2 23.8,20.8 15,29.6 20.4,35 24.3,31.1 		"/>
		<polygon points="30.3,17.1 32.9,19.7 25.3,27.3 26.7,28.7 35.7,19.7 30.3,14.3 26.2,18.4 27.6,19.8 		"/>
	</g>
</g>
<g>
	<path fill="#FFFFFF" d="M49.4,17.6l-5.2-5.2l4-4l-6.6-6.6l-4,4l-5.2-5.2l-4.1,4.1l-2.8-2.8l-5.4,5.4l8.5,8.5l-2.5,2.5l1.4,1.4
		l2.5-2.5l2.6,2.6l-7.4,7.4l1.4,1.4l7.4-7.4l7.6,7.6l5.4-5.4l-1.9-1.9L49.4,17.6z M41.7,4.6l3.8,3.8l-2.6,2.6l-3.8-3.8L41.7,4.6z
		 M32.4,3.4l14.1,14.1L44,20.1L29.9,6L32.4,3.4z M41.8,26.1l-6.2-6.2l0.1-0.1l-5.4-5.4l-0.1,0.1L23,7.3l2.6-2.6l18.8,18.8L41.8,26.1
		z"/>
	<path fill="#FFFFFF" d="M21.7,33.7l2.5-2.5l-1.4-1.4l-2.5,2.5l-2.6-2.6l7.4-7.4l-1.4-1.4l-7.5,7.5l-8.1-8.1l-5.4,5.4l2.3,2.3l-4,4
		l5.2,5.2l-4,4l6.6,6.6l4-4l5.2,5.2l4-4l2.3,2.3l5.4-5.4L21.7,33.7z M8.9,44.8l-3.8-3.8l2.6-2.6l3.8,3.8L8.9,44.8z M18.1,46
		l-3.8-3.8l0,0l-6.6-6.6l0,0L4,31.9l2.6-2.6l14.1,14.1L18.1,46z M5.7,25.6L8.3,23L27,41.7l-2.6,2.6L5.7,25.6z"/>
</g>
</svg>
